<?xml version="1.0" encoding="UTF-8"?>
<!DOCTYPE svg PUBLIC "-//W3C//DTD SVG 1.1//EN" "http://www.w3.org/Graphics/SVG/1.1/DTD/svg11.dtd">
<svg xmlns="http://www.w3.org/2000/svg" version="1.1" width="1920px" height="1920px" style="shape-rendering:geometricPrecision; text-rendering:geometricPrecision; image-rendering:optimizeQuality; fill-rule:evenodd; clip-rule:evenodd" xmlns:xlink="http://www.w3.org/1999/xlink">
<g><path style="opacity:0.692" fill="#fefefe" d="M 355.5,442.5 C 758.833,442.333 1162.17,442.5 1565.5,443C 1581.3,444.811 1591.47,453.311 1596,468.5C 1596.67,526.5 1596.67,584.5 1596,642.5C 1592.23,653.934 1584.73,661.767 1573.5,666C 1164.83,666.667 756.167,666.667 347.5,666C 335.63,662.462 328.13,654.628 325,642.5C 324.333,584.5 324.333,526.5 325,468.5C 329.625,453.424 339.792,444.758 355.5,442.5 Z"/></g>
<g><path style="opacity:0.793" fill="#fefefe" d="M 377.5,742.5 C 766.167,742.333 1154.83,742.5 1543.5,743C 1570.02,749.181 1587.18,765.348 1595,791.5C 1596.64,831.795 1596.97,872.128 1596,912.5C 1589.83,940.336 1573,958.17 1545.5,966C 1155.5,966.667 765.5,966.667 375.5,966C 350.067,958.9 333.567,942.733 326,917.5C 324.362,877.205 324.029,836.872 325,796.5C 331.089,767.265 348.589,749.265 377.5,742.5 Z"/></g>
<g><path style="opacity:0.892" fill="#fefefe" d="M 407.5,1029.5 C 776.167,1029.33 1144.83,1029.5 1513.5,1030C 1560.12,1038.95 1587.62,1066.78 1596,1113.5C 1596.67,1132.17 1596.67,1150.83 1596,1169.5C 1587.7,1213.47 1561.87,1240.97 1518.5,1252C 1146.17,1252.67 773.833,1252.67 401.5,1252C 362.584,1242.75 337.75,1218.92 327,1180.5C 326.055,1176.89 325.388,1173.22 325,1169.5C 324.333,1150.5 324.333,1131.5 325,1112.5C 334.022,1066.31 361.522,1038.64 407.5,1029.5 Z"/></g>
<g><path style="opacity:0.989" fill="#fefefe" d="M 422.5,1326.5 C 781.167,1326.33 1139.83,1326.5 1498.5,1327C 1553.82,1337.08 1586.32,1369.91 1596,1425.5C 1599.61,1475.13 1580.44,1512.63 1538.5,1538C 1527.73,1543.59 1516.4,1547.59 1504.5,1550C 1141.83,1550.67 779.167,1550.67 416.5,1550C 367.01,1539.18 336.843,1509.01 326,1459.5C 319.341,1406.66 338.507,1366.5 383.5,1339C 396.019,1333.06 409.019,1328.89 422.5,1326.5 Z"/></g>
</svg>
